<svg width="48" height="48" viewBox="0 0 48 48" fill="none" xmlns="http://www.w3.org/2000/svg">
<g clip-path="url(#clip0_392_40)">
<path d="M19.993 22.0418C19.62 22.3083 19.1404 22.4681 18.5543 22.4681H15.2505V19.0045H18.3411C18.6609 19.0045 18.9273 19.0045 19.1937 19.0578C19.4602 19.1111 19.6733 19.2176 19.8864 19.3242C20.0996 19.4841 20.2595 19.6439 20.366 19.8571C20.4726 20.0702 20.5259 20.3899 20.5259 20.7097C20.5259 21.2958 20.366 21.7754 19.993 22.0418Z" fill="white"/>
<path d="M19.62 28.6494C19.3536 28.7027 19.0339 28.756 18.7141 28.756H15.2505V24.6529H18.7674C19.4602 24.6529 20.0463 24.8128 20.4726 25.1325C20.8989 25.5055 21.1121 26.0383 21.1121 26.7844C21.1121 27.1574 21.0055 27.4771 20.8989 27.7435C20.739 28.01 20.5792 28.1698 20.366 28.3297C20.1529 28.4895 19.8865 28.5961 19.62 28.6494Z" fill="white"/>
<path d="M30.7037 22.5214C31.3964 22.5214 31.9826 22.7346 32.3556 23.1076C32.7286 23.4806 32.995 24.0135 33.1016 24.8128H28.3058C28.3058 24.6362 28.3424 24.4596 28.3852 24.2527C28.3941 24.2099 28.4032 24.1657 28.4124 24.12C28.4656 23.8536 28.5722 23.5872 28.7854 23.374C28.9985 23.1609 29.2117 22.9477 29.5314 22.7879C29.8511 22.628 30.2241 22.5214 30.7037 22.5214Z" fill="white"/>
<path fill-rule="evenodd" clip-rule="evenodd" d="M24 0C10.7452 0 0 10.7452 0 24C0 37.2548 10.7452 48 24 48C37.2548 48 48 37.2548 48 24C48 10.7452 37.2548 0 24 0ZM20.8989 16.7131C20.3128 16.5533 19.6733 16.5 18.9806 16.5H12V31.2072H19.1404C19.7799 31.2072 20.4193 31.1006 21.0588 30.9407C21.6982 30.7809 22.2844 30.5145 22.764 30.1947C23.2435 29.875 23.6698 29.3954 23.9363 28.8626C24.2027 28.3297 24.3626 27.6902 24.3626 26.9442C24.3626 26.0383 24.0961 25.239 23.6698 24.5996C23.2435 23.9602 22.5508 23.4806 21.6449 23.2141C22.2844 22.8944 22.8172 22.4681 23.137 21.9885C23.51 21.509 23.6698 20.8695 23.6698 20.1235C23.6698 19.4841 23.5633 18.8979 23.3501 18.4183C23.137 17.9387 22.8172 17.5657 22.3909 17.2993C21.9646 17.0329 21.4851 16.8197 20.8989 16.7131ZM30.9168 29.3421C30.0643 29.3421 29.4248 29.129 28.9985 28.7027C28.5722 28.2764 28.2525 27.4771 28.2525 26.6245H35.9791C36.0324 25.7719 35.9791 25.0259 35.8725 24.2799C35.6594 23.5339 35.3397 22.8411 34.9134 22.255C34.4871 21.6155 33.9542 21.1892 33.2615 20.8162C32.5687 20.4432 31.7694 20.2834 30.8636 20.2834C30.011 20.2834 29.3182 20.4432 28.6255 20.7097C27.9861 20.9761 27.3999 21.4024 26.9203 21.882C26.4407 22.4148 26.0677 23.001 25.8013 23.6937C25.5349 24.3865 25.4283 25.1325 25.4283 25.9318C25.4283 26.7844 25.5349 27.5304 25.8013 28.2231C26.0145 28.9158 26.3875 29.502 26.867 29.9816C27.3466 30.5145 27.8795 30.8875 28.5722 31.1539C29.2649 31.4203 30.011 31.5802 30.8636 31.5802C32.0892 31.5802 33.1016 31.2605 33.9542 30.7276C34.8068 30.1414 35.4462 29.2356 35.8725 27.9567H33.2615C33.1549 28.2764 32.8885 28.5961 32.4622 28.9158C32.0359 29.1823 31.503 29.3421 30.9168 29.3421ZM33.6345 17.5125H27.6663V18.9512H33.6345V17.5125Z" fill="white"/>
</g>
<defs>
<clipPath id="clip0_392_40">
<rect width="48" height="48" fill="white"/>
</clipPath>
</defs>
</svg>
